<?xml version="1.0" standalone="no"?>
<!DOCTYPE svg PUBLIC "-//W3C//DTD SVG 20010904//EN"
 "http://www.w3.org/TR/2001/REC-SVG-20010904/DTD/svg10.dtd">
<svg version="1.0" xmlns="http://www.w3.org/2000/svg"
 width="1365.000000pt" height="1365.000000pt" viewBox="0 0 1365.000000 1365.000000"
 preserveAspectRatio="xMidYMid meet">
<metadata>
Created by potrace 1.14, written by Peter Selinger 2001-2017
</metadata>
<g transform="translate(0.000000,1365.000000) scale(0.100000,-0.100000)"
fill="#000000" stroke="none">
<path d="M6400 11521 l0 -1606 -1445 1 -1445 2 0 -1619 0 -1619 -32 -1 c-18 0
-669 0 -1446 -1 l-1412 0 0 -2799 0 -2799 -308 0 -307 0 0 -269 c0 -148 3
-272 7 -276 7 -7 3029 -7 5473 0 798 2 2891 6 4653 9 1762 2 3206 7 3209 10 4
4 7 427 4 528 -1 15 -25 16 -253 17 -139 0 -277 0 -305 0 l-53 1 0 3699 0
3699 -1445 -2 -1445 -1 0 2316 0 2316 -1725 0 -1725 0 0 -1606z"/>
</g>
</svg>
